<svg width="30" height="30" viewBox="0 0 30 30" fill="none" xmlns="http://www.w3.org/2000/svg">
<g filter="url(#filter0_d_117_674)">
<rect x="1.5" y="0.5" width="27" height="27" rx="4.5" fill="#2C2362" stroke="#B93DE6"/>
<path d="M6.12216 20H4.46023L9.26705 6.90909H10.9034L15.7102 20H14.0483L10.1364 8.98011H10.0341L6.12216 20ZM6.7358 14.8864H13.4347V16.2926H6.7358V14.8864ZM20.7612 20.2045C19.8152 20.2045 18.9991 19.9957 18.3131 19.5781C17.6313 19.1562 17.105 18.5682 16.7342 17.8139C16.3678 17.0554 16.1845 16.1733 16.1845 15.1676C16.1845 14.1619 16.3678 13.2756 16.7342 12.5085C17.105 11.7372 17.6206 11.1364 18.2811 10.706C18.9459 10.2713 19.7214 10.054 20.6078 10.054C21.1192 10.054 21.6241 10.1392 22.1227 10.3097C22.6213 10.4801 23.0751 10.7571 23.4842 11.1406C23.8933 11.5199 24.2193 12.0227 24.4622 12.6491C24.7051 13.2756 24.8266 14.0469 24.8266 14.9631V15.6023H17.2584V14.2983H23.2925C23.2925 13.7443 23.1817 13.25 22.9601 12.8153C22.7428 12.3807 22.4317 12.0376 22.0268 11.7862C21.6263 11.5348 21.1533 11.4091 20.6078 11.4091C20.007 11.4091 19.4871 11.5582 19.0482 11.8565C18.6135 12.1506 18.279 12.5341 18.0446 13.0071C17.8102 13.4801 17.693 13.9872 17.693 14.5284V15.3977C17.693 16.1392 17.8209 16.7678 18.0766 17.2834C18.3365 17.7947 18.6966 18.1847 19.1568 18.4531C19.617 18.7173 20.1518 18.8494 20.7612 18.8494C21.1575 18.8494 21.5155 18.794 21.8351 18.6832C22.1589 18.5682 22.4381 18.3977 22.6724 18.1719C22.9068 17.9418 23.0879 17.6562 23.2158 17.3153L24.6732 17.7244C24.5197 18.2188 24.2619 18.6534 23.8997 19.0284C23.5375 19.3991 23.0901 19.6889 22.5574 19.8977C22.0247 20.1023 21.426 20.2045 20.7612 20.2045Z" fill="#DDC5E6"/>
</g>
<defs>
<filter id="filter0_d_117_674" x="0" y="0" width="30" height="30" filterUnits="userSpaceOnUse" color-interpolation-filters="sRGB">
<feFlood flood-opacity="0" result="BackgroundImageFix"/>
<feColorMatrix in="SourceAlpha" type="matrix" values="0 0 0 0 0 0 0 0 0 0 0 0 0 0 0 0 0 0 127 0" result="hardAlpha"/>
<feOffset dy="1"/>
<feGaussianBlur stdDeviation="0.5"/>
<feComposite in2="hardAlpha" operator="out"/>
<feColorMatrix type="matrix" values="0 0 0 0 0 0 0 0 0 0 0 0 0 0 0 0 0 0 0.25 0"/>
<feBlend mode="normal" in2="BackgroundImageFix" result="effect1_dropShadow_117_674"/>
<feBlend mode="normal" in="SourceGraphic" in2="effect1_dropShadow_117_674" result="shape"/>
</filter>
</defs>
</svg>
