<svg width="30" height="30" viewBox="0 0 30 30" fill="none" xmlns="http://www.w3.org/2000/svg">
<g filter="url(#filter0_d_109_707)">
<rect x="1" width="28" height="28" rx="5" fill="white"/>
<path d="M7.23295 20V9.81818H10.7926C11.5019 9.81818 12.0869 9.94081 12.5476 10.1861C13.0083 10.428 13.3513 10.7545 13.5767 11.1655C13.8021 11.5732 13.9148 12.0256 13.9148 12.5227C13.9148 12.9602 13.8369 13.3215 13.6811 13.6065C13.5286 13.8916 13.3265 14.117 13.0746 14.2827C12.826 14.4484 12.5559 14.571 12.2642 14.6506V14.75C12.5758 14.7699 12.889 14.8793 13.2038 15.0781C13.5187 15.277 13.7822 15.562 13.9943 15.9332C14.2064 16.3045 14.3125 16.7585 14.3125 17.2955C14.3125 17.8059 14.1965 18.2649 13.9645 18.6726C13.7325 19.0803 13.3662 19.4034 12.8658 19.642C12.3653 19.8807 11.714 20 10.9119 20H7.23295ZM8.46591 18.9062H10.9119C11.7173 18.9062 12.2891 18.7505 12.6271 18.4389C12.9685 18.1241 13.1392 17.7429 13.1392 17.2955C13.1392 16.9508 13.0514 16.6326 12.8757 16.3409C12.7 16.0459 12.4498 15.8106 12.125 15.6349C11.8002 15.456 11.4157 15.3665 10.9716 15.3665H8.46591V18.9062ZM8.46591 14.2926H10.7528C11.1241 14.2926 11.4588 14.2197 11.7571 14.0739C12.0587 13.928 12.2973 13.7225 12.473 13.4574C12.652 13.1922 12.7415 12.8807 12.7415 12.5227C12.7415 12.0753 12.5857 11.6958 12.2741 11.3842C11.9626 11.0694 11.4688 10.9119 10.7926 10.9119H8.46591V14.2926ZM17.3526 15.4062V20H16.1793V9.81818H17.3526V13.5568H17.4521C17.631 13.1624 17.8995 12.8492 18.2575 12.6172C18.6187 12.3819 19.0993 12.2642 19.6992 12.2642C20.2196 12.2642 20.6753 12.3686 21.0664 12.5774C21.4575 12.7829 21.7608 13.0994 21.9762 13.527C22.195 13.9512 22.3043 14.4915 22.3043 15.1477V20H21.131V15.2273C21.131 14.6207 20.9736 14.1518 20.6587 13.8203C20.3472 13.4856 19.9147 13.3182 19.3612 13.3182C18.9767 13.3182 18.632 13.3994 18.3271 13.5618C18.0254 13.7242 17.7868 13.9612 17.6112 14.2727C17.4388 14.5843 17.3526 14.9621 17.3526 15.4062Z" fill="black"/>
</g>
<defs>
<filter id="filter0_d_109_707" x="0" y="0" width="30" height="30" filterUnits="userSpaceOnUse" color-interpolation-filters="sRGB">
<feFlood flood-opacity="0" result="BackgroundImageFix"/>
<feColorMatrix in="SourceAlpha" type="matrix" values="0 0 0 0 0 0 0 0 0 0 0 0 0 0 0 0 0 0 127 0" result="hardAlpha"/>
<feOffset dy="1"/>
<feGaussianBlur stdDeviation="0.5"/>
<feComposite in2="hardAlpha" operator="out"/>
<feColorMatrix type="matrix" values="0 0 0 0 0 0 0 0 0 0 0 0 0 0 0 0 0 0 0.25 0"/>
<feBlend mode="normal" in2="BackgroundImageFix" result="effect1_dropShadow_109_707"/>
<feBlend mode="normal" in="SourceGraphic" in2="effect1_dropShadow_109_707" result="shape"/>
</filter>
</defs>
</svg>
