<svg width="32" height="32" viewBox="0 0 32 32" fill="none" xmlns="http://www.w3.org/2000/svg">
<path d="M20.0003 4C20.6731 3.99979 21.3211 4.25388 21.8144 4.71133C22.3077 5.16878 22.6099 5.79579 22.6603 6.46667L22.667 6.66667C22.667 6.99324 22.7869 7.30845 23.0039 7.5525C23.221 7.79654 23.52 7.95246 23.8443 7.99067L24.0003 8H25.3337C26.3539 7.99994 27.3357 8.38977 28.078 9.08971C28.8203 9.78966 29.2671 10.7468 29.327 11.7653L29.3337 12V24C29.3337 25.0203 28.9439 26.002 28.2439 26.7443C27.544 27.4867 26.5868 27.9335 25.5683 27.9933L25.3337 28H6.66699C5.64671 28.0001 4.66497 27.6102 3.92264 26.9103C3.18032 26.2103 2.73352 25.2532 2.67366 24.2347L2.66699 24V12C2.66694 10.9797 3.05676 9.99798 3.7567 9.25565C4.45665 8.51332 5.4138 8.06652 6.43233 8.00667L6.66699 8H8.00033C8.35395 8 8.69309 7.85952 8.94313 7.60948C9.19318 7.35943 9.33366 7.02029 9.33366 6.66667C9.33345 5.9939 9.58753 5.34591 10.045 4.8526C10.5024 4.35929 11.1295 4.05712 11.8003 4.00667L12.0003 4H20.0003ZM16.0003 13.3333C15.0091 13.3333 14.0532 13.7012 13.3178 14.3658C12.5825 15.0305 12.1201 15.9445 12.0203 16.9307L12.0057 17.1333L12.0003 17.3333L12.0057 17.5333C12.0448 18.315 12.3124 19.068 12.7752 19.699C13.2381 20.3301 13.8759 20.8115 14.6097 21.0837C15.3435 21.3558 16.141 21.4068 16.9034 21.2301C17.6658 21.0535 18.3597 20.6571 18.899 20.09C19.4384 19.5229 19.7996 18.8101 19.9378 18.0398C20.076 17.2695 19.9852 16.4755 19.6766 15.7563C19.3681 15.0371 18.8553 14.4241 18.2019 13.9935C17.5484 13.5628 16.7829 13.3333 16.0003 13.3333Z" fill="#F8F8F8"/>
</svg>
