<svg width="32" height="32" viewBox="0 0 32 32" fill="none" xmlns="http://www.w3.org/2000/svg">
<path d="M18.1102 8.20962C18.2015 7.65604 18.4133 7.12925 18.7304 6.66644C19.0476 6.20362 19.4625 5.81606 19.9458 5.5311C20.4291 5.24615 20.9691 5.07074 21.5276 5.01727C22.0861 4.96379 22.6496 5.03355 23.1782 5.22162L23.9982 5.51362C24.1845 5.58282 24.3826 5.61432 24.5812 5.60629C24.7797 5.59825 24.9747 5.55085 25.1548 5.46683C25.3348 5.38281 25.4964 5.26385 25.6301 5.11685C25.7639 4.96986 25.867 4.79776 25.9337 4.61056C26.0003 4.42335 26.0291 4.22478 26.0183 4.02635C26.0076 3.82793 25.9575 3.63363 25.871 3.45472C25.7846 3.27581 25.6634 3.11587 25.5146 2.98419C25.3658 2.8525 25.1923 2.75169 25.0042 2.68762L24.1842 2.39562C23.2421 2.06032 22.2379 1.93585 21.2424 2.03101C20.2469 2.12617 19.2845 2.43864 18.423 2.94636C17.5614 3.45408 16.8218 4.14468 16.2563 4.96944C15.6909 5.7942 15.3133 6.73301 15.1502 7.71962L14.1982 13.4996H9.00019C8.60236 13.4996 8.22083 13.6577 7.93953 13.939C7.65822 14.2203 7.50019 14.6018 7.50019 14.9996C7.50019 15.3974 7.65822 15.779 7.93953 16.0603C8.22083 16.3416 8.60236 16.4996 9.00019 16.4996H13.7042L12.8362 21.7636C12.7329 22.3897 12.4757 22.9804 12.0879 23.4827C11.7 23.9849 11.1936 24.3831 10.6139 24.6414C10.0343 24.8997 9.39961 25.0101 8.7668 24.9626C8.13399 24.9152 7.52284 24.7114 6.98819 24.3696L6.30819 23.9336C6.1422 23.8275 5.95693 23.7551 5.76297 23.7206C5.56901 23.6861 5.37015 23.6902 5.17775 23.7325C4.98534 23.7748 4.80316 23.8547 4.64161 23.9674C4.48006 24.0802 4.34229 24.2236 4.23619 24.3896C4.13008 24.5556 4.0577 24.7409 4.02319 24.9348C3.98869 25.1288 3.99272 25.3277 4.03506 25.5201C4.07741 25.7125 4.15723 25.8946 4.26998 26.0562C4.38273 26.2178 4.5262 26.3555 4.69219 26.4616L5.37219 26.8956C9.50619 29.5416 15.0002 27.0956 15.7982 22.2516L16.7442 16.4976H21.0002C21.398 16.4976 21.7795 16.3396 22.0608 16.0583C22.3422 15.777 22.5002 15.3954 22.5002 14.9976C22.5002 14.5998 22.3422 14.2183 22.0608 13.937C21.7795 13.6557 21.398 13.4976 21.0002 13.4976H17.2402L18.1102 8.20962Z" fill="#F8F8F8"/>
</svg>
