<svg width="32" height="32" viewBox="0 0 32 32" fill="none" xmlns="http://www.w3.org/2000/svg">
<path d="M15.9999 5.60156L1.40527 11.0747L15.9999 18.372L22.9511 14.8964L16.4301 12.9026C16.2958 12.967 16.1488 13.0006 15.9999 13.0009C15.7347 13.0009 15.4803 12.8956 15.2928 12.708C15.1053 12.5205 14.9999 12.2662 14.9999 12.0009C14.9999 11.7357 15.1053 11.4814 15.2928 11.2938C15.4803 11.1063 15.7347 11.0009 15.9999 11.0009L15.8345 11.5386L16.9931 11.895C16.9933 11.8962 16.9934 11.8973 16.9936 11.8985L18.7032 12.4213L28.4374 15.4163V16.1754C28.3028 16.267 28.1925 16.3901 28.1163 16.5339C28.04 16.6778 28.0001 16.8382 27.9999 17.001C28.0001 17.1676 28.0419 17.3315 28.1215 17.4778C28.2011 17.6241 28.316 17.7482 28.4557 17.8389C28.0005 19.5592 27.9999 23.4624 27.9999 25.0009C28.9999 25.6506 28.9999 25.6744 29.9999 25.0009C29.9999 23.4626 29.9994 19.5601 29.5443 17.8394C29.6841 17.7487 29.799 17.6245 29.8786 17.478C29.9581 17.3316 29.9998 17.1676 29.9999 17.0009C29.9999 16.8379 29.96 16.6774 29.8838 16.5333C29.8075 16.3892 29.6972 16.2659 29.5624 16.1743V14.5855L25.8546 13.4447L30.5945 11.0747L15.9999 5.60156ZM7.47634 15.5634L6.65615 20.4847C8.29209 20.6986 10.249 21.6495 12.048 22.7739C13.0711 23.4134 14.0295 24.1153 14.8078 24.7964C15.2835 25.2126 15.6813 25.612 15.9999 26.0049C16.3185 25.6119 16.7163 25.2126 17.192 24.7964C17.9703 24.1153 18.9286 23.4134 19.9518 22.7739C21.7508 21.6495 23.7077 20.6986 25.3436 20.4847L24.5233 15.5634H24.1327L15.9999 19.6299L7.86696 15.5634H7.47634Z" fill="#F8F8F8"/>
</svg>
