<svg width="30" height="30" viewBox="0 0 30 30" fill="none" xmlns="http://www.w3.org/2000/svg">
<g filter="url(#filter0_d_117_681)">
<rect x="1.5" y="0.5" width="27" height="27" rx="4.5" fill="#220011" stroke="#B11A5A"/>
<path d="M10.1705 7.90909V21H8.58523V7.90909H10.1705ZM15.9517 21.2045C15.1336 21.2045 14.4113 20.9979 13.7848 20.5845C13.1584 20.1669 12.6684 19.5788 12.3147 18.8203C11.961 18.0575 11.7841 17.1562 11.7841 16.1165C11.7841 15.0852 11.961 14.1903 12.3147 13.4318C12.6684 12.6733 13.1605 12.0874 13.7912 11.674C14.4219 11.2607 15.1506 11.054 15.9773 11.054C16.6165 11.054 17.1215 11.1605 17.4922 11.3736C17.8672 11.5824 18.1527 11.821 18.3488 12.0895C18.549 12.3537 18.7046 12.571 18.8154 12.7415H18.9432V7.90909H20.4517V21H18.9944V19.4915H18.8154C18.7046 19.6705 18.5469 19.8963 18.3424 20.169C18.1378 20.4375 17.8459 20.6783 17.4667 20.8913C17.0874 21.1001 16.5824 21.2045 15.9517 21.2045ZM16.1563 19.8494C16.7614 19.8494 17.2728 19.6918 17.6904 19.3764C18.108 19.0568 18.4255 18.6158 18.6428 18.0533C18.8601 17.4865 18.9688 16.8324 18.9688 16.0909C18.9688 15.358 18.8623 14.7166 18.6492 14.1669C18.4361 13.6129 18.1208 13.1825 17.7032 12.8757C17.2855 12.5646 16.7699 12.4091 16.1563 12.4091C15.5171 12.4091 14.9844 12.5732 14.5583 12.9013C14.1364 13.2251 13.8189 13.6662 13.6059 14.2244C13.3971 14.7784 13.2926 15.4006 13.2926 16.0909C13.2926 16.7898 13.3992 17.4247 13.6123 17.9957C13.8296 18.5625 14.1492 19.0142 14.5711 19.3509C14.9972 19.6832 15.5256 19.8494 16.1563 19.8494Z" fill="#CBA4B6"/>
</g>
<defs>
<filter id="filter0_d_117_681" x="0" y="0" width="30" height="30" filterUnits="userSpaceOnUse" color-interpolation-filters="sRGB">
<feFlood flood-opacity="0" result="BackgroundImageFix"/>
<feColorMatrix in="SourceAlpha" type="matrix" values="0 0 0 0 0 0 0 0 0 0 0 0 0 0 0 0 0 0 127 0" result="hardAlpha"/>
<feOffset dy="1"/>
<feGaussianBlur stdDeviation="0.5"/>
<feComposite in2="hardAlpha" operator="out"/>
<feColorMatrix type="matrix" values="0 0 0 0 0 0 0 0 0 0 0 0 0 0 0 0 0 0 0.25 0"/>
<feBlend mode="normal" in2="BackgroundImageFix" result="effect1_dropShadow_117_681"/>
<feBlend mode="normal" in="SourceGraphic" in2="effect1_dropShadow_117_681" result="shape"/>
</filter>
</defs>
</svg>
