<svg width="32" height="32" viewBox="0 0 32 32" fill="none" xmlns="http://www.w3.org/2000/svg">
<g clip-path="url(#clip0_109_675)">
<path fill-rule="evenodd" clip-rule="evenodd" d="M14.6668 3.23026C15.0374 3.01633 15.454 2.89472 15.8814 2.87569C16.3089 2.85666 16.7347 2.94077 17.1228 3.12093L17.3335 3.23026L21.7735 5.79293C22.1468 6.0086 22.4623 6.31161 22.6929 6.67596C22.9235 7.04032 23.0623 7.45516 23.0975 7.88493L23.1068 8.10226V13.2303L27.5468 15.7929C27.9202 16.0086 28.2357 16.3116 28.4663 16.676C28.6969 17.0403 28.8357 17.4552 28.8708 17.8849L28.8801 18.1023V23.2303C28.8801 23.6612 28.7757 24.0857 28.5758 24.4675C28.3758 24.8492 28.0863 25.1768 27.7321 25.4223L27.5468 25.5396L23.1068 28.1023C22.736 28.3164 22.3192 28.4381 21.8915 28.4572C21.4638 28.4762 21.0377 28.392 20.6495 28.2116L20.4401 28.1023L16.0001 25.5396L11.5601 28.1023C11.1894 28.3164 10.7725 28.4381 10.3448 28.4572C9.91709 28.4762 9.49108 28.392 9.10278 28.2116L8.89345 28.1023L4.45345 25.5396C4.08024 25.324 3.76484 25.0212 3.53425 24.6571C3.30367 24.293 3.16477 23.8785 3.12945 23.4489L3.12012 23.2303V18.1023C3.12011 17.6713 3.22455 17.2468 3.42448 16.865C3.62441 16.4833 3.91389 16.1557 4.26812 15.9103L4.45345 15.7929L8.89345 13.2303V8.10226C8.89345 7.67132 8.99788 7.2468 9.19782 6.86505C9.39775 6.48329 9.68722 6.15568 10.0415 5.91026L10.2268 5.79293L14.6668 3.23026ZM21.7735 15.5396L17.5121 17.9996L21.7735 20.4596L26.0348 17.9996L21.7735 15.5396ZM10.2268 15.5396L5.96545 17.9996L10.2268 20.4596L14.4881 17.9996L10.2268 15.5396ZM16.0001 5.53959L11.7388 7.99959L16.0001 10.4596L20.2615 7.99959L16.0001 5.53959Z" fill="#F8F8F8"/>
</g>
<defs>
<clipPath id="clip0_109_675">
<rect width="32" height="32" fill="white"/>
</clipPath>
</defs>
</svg>
