<svg width="32" height="32" viewBox="0 0 32 32" fill="none" xmlns="http://www.w3.org/2000/svg">
<path d="M7.54166 27.306C7.35022 27.4725 7.11526 27.5808 6.86437 27.6184C6.61348 27.656 6.35707 27.6213 6.12524 27.5183C5.89342 27.4152 5.69579 27.2482 5.55558 27.0368C5.41537 26.8253 5.33838 26.5783 5.33366 26.3247V23.334C4.62641 23.334 3.94814 23.053 3.44804 22.5529C2.94794 22.0528 2.66699 21.3746 2.66699 20.6673V11.334C2.66699 10.6267 2.94794 9.94846 3.44804 9.44837C3.94814 8.94827 4.62641 8.66732 5.33366 8.66732H20.0003C20.7076 8.66732 21.3858 8.94827 21.8859 9.44837C22.386 9.94846 22.667 10.6267 22.667 11.334V20.6673C22.667 21.3746 22.386 22.0528 21.8859 22.5529C21.3858 23.053 20.7076 23.334 20.0003 23.334H13.3377L7.54166 27.306ZM24.0003 16.69C23.9961 16.854 23.9961 17.018 24.0003 17.182V16.69ZM24.0003 16.69C24.007 16.5473 24.0083 14.7607 24.0057 11.3313C24.0046 10.2711 23.5827 9.25476 22.8327 8.50548C22.0826 7.7562 21.0658 7.33532 20.0057 7.33532H9.33366V6.00065C9.33366 5.29341 9.61461 4.61513 10.1147 4.11503C10.6148 3.61494 11.2931 3.33398 12.0003 3.33398H26.667C27.3742 3.33398 28.0525 3.61494 28.5526 4.11503C29.0527 4.61513 29.3337 5.29341 29.3337 6.00065V15.334C29.3337 16.0412 29.0527 16.7195 28.5526 17.2196C28.0525 17.7197 27.3742 18.0007 26.667 18.0007V20.9913C26.6623 21.245 26.5853 21.492 26.4451 21.7034C26.3049 21.9149 26.1072 22.0819 25.8754 22.1849C25.6436 22.288 25.3872 22.3227 25.1363 22.2851C24.8854 22.2475 24.6504 22.1391 24.459 21.9727L24.0003 21.658V16.69Z" fill="#F8F8F8"/>
</svg>
