<svg width="30" height="30" viewBox="0 0 30 30" fill="none" xmlns="http://www.w3.org/2000/svg">
<g filter="url(#filter0_d_117_677)">
<rect x="1.5" y="0.5" width="27" height="27" rx="4.5" fill="#18001D" stroke="#8E4198"/>
<path d="M7.58523 22V8.90909H12.0085C13.0355 8.90909 13.875 9.09446 14.527 9.4652C15.1832 9.83168 15.669 10.3281 15.9844 10.9545C16.2997 11.581 16.4574 12.2798 16.4574 13.0511C16.4574 13.8224 16.2997 14.5234 15.9844 15.1541C15.6733 15.7848 15.1918 16.2876 14.5398 16.6626C13.8878 17.0334 13.0526 17.2188 12.0341 17.2188H8.86364V15.8125H11.983C12.6861 15.8125 13.2507 15.6911 13.6768 15.4482C14.103 15.2053 14.4119 14.8771 14.6037 14.4638C14.7997 14.0462 14.8977 13.5753 14.8977 13.0511C14.8977 12.527 14.7997 12.0582 14.6037 11.6449C14.4119 11.2315 14.1009 10.9077 13.6705 10.6733C13.2401 10.4347 12.669 10.3153 11.9574 10.3153H9.17045V22H7.58523ZM17.9065 22V12.1818H19.3638V13.6648H19.4661C19.6451 13.179 19.969 12.7848 20.4377 12.4822C20.9065 12.1797 21.4349 12.0284 22.0229 12.0284C22.1337 12.0284 22.2722 12.0305 22.4384 12.0348C22.6046 12.0391 22.7303 12.0455 22.8156 12.054V13.5881C22.7644 13.5753 22.6472 13.5561 22.464 13.5305C22.285 13.5007 22.0954 13.4858 21.8951 13.4858C21.4178 13.4858 20.9917 13.5859 20.6167 13.7862C20.246 13.9822 19.9519 14.255 19.7346 14.6044C19.5215 14.9496 19.415 15.3437 19.415 15.7869V22H17.9065Z" fill="#F3DEF7"/>
</g>
<defs>
<filter id="filter0_d_117_677" x="0" y="0" width="30" height="30" filterUnits="userSpaceOnUse" color-interpolation-filters="sRGB">
<feFlood flood-opacity="0" result="BackgroundImageFix"/>
<feColorMatrix in="SourceAlpha" type="matrix" values="0 0 0 0 0 0 0 0 0 0 0 0 0 0 0 0 0 0 127 0" result="hardAlpha"/>
<feOffset dy="1"/>
<feGaussianBlur stdDeviation="0.5"/>
<feComposite in2="hardAlpha" operator="out"/>
<feColorMatrix type="matrix" values="0 0 0 0 0 0 0 0 0 0 0 0 0 0 0 0 0 0 0.25 0"/>
<feBlend mode="normal" in2="BackgroundImageFix" result="effect1_dropShadow_117_677"/>
<feBlend mode="normal" in="SourceGraphic" in2="effect1_dropShadow_117_677" result="shape"/>
</filter>
</defs>
</svg>
