<svg width="32" height="32" viewBox="0 0 32 32" fill="none" xmlns="http://www.w3.org/2000/svg">
<path d="M25.2262 2.51548C25.8167 2.11992 26.5262 1.9415 27.2336 2.01067C27.9409 2.07984 28.6024 2.39231 29.1051 2.89477C29.6078 3.39723 29.9206 4.05855 29.9901 4.76589C30.0596 5.47324 29.8815 6.18279 29.4862 6.77348L25.6762 12.4855C23.9321 15.1019 21.4556 17.1464 18.5562 18.3635C18.1581 17.2266 17.5091 16.194 16.6574 15.3423C15.8057 14.4906 14.7731 13.8416 13.6362 13.4435C14.8539 10.5438 16.8991 8.06735 19.5162 6.32348L25.2262 2.51548ZM11.0002 15.9995C9.67414 15.9995 8.40237 16.5263 7.46469 17.4639C6.527 18.4016 6.00022 19.6734 6.00022 20.9995C6.00047 21.1656 5.9593 21.3293 5.88044 21.4755C5.80159 21.6218 5.68752 21.7461 5.54856 21.8372C5.4096 21.9283 5.25013 21.9834 5.08455 21.9974C4.91897 22.0114 4.75252 21.9839 4.60022 21.9175C4.32164 21.7951 4.01244 21.7604 3.71366 21.8179C3.41488 21.8754 3.14065 22.0224 2.92736 22.2393C2.71407 22.4563 2.5718 22.733 2.51945 23.0328C2.46709 23.3325 2.50712 23.641 2.63422 23.9175C3.29891 25.3711 4.44103 26.5534 5.87076 27.268C7.30048 27.9825 8.93169 28.1863 10.4933 27.8454C12.0548 27.5045 13.4527 26.6394 14.4545 25.394C15.4564 24.1486 16.0018 22.5978 16.0002 20.9995C16.0002 19.6734 15.4734 18.4016 14.5358 17.4639C13.5981 16.5263 12.3263 15.9995 11.0002 15.9995Z" fill="#F8F8F8"/>
</svg>
