<svg width="30" height="30" viewBox="0 0 30 30" fill="none" xmlns="http://www.w3.org/2000/svg">
<g filter="url(#filter0_d_117_668)">
<rect x="1.5" y="0.5" width="27" height="27" rx="4.5" fill="#0A171C" stroke="#2EA7E4"/>
<path d="M6.58523 21V7.90909H11.0085C12.0355 7.90909 12.875 8.09446 13.527 8.4652C14.1832 8.83168 14.669 9.32812 14.9844 9.95455C15.2997 10.581 15.4574 11.2798 15.4574 12.0511C15.4574 12.8224 15.2997 13.5234 14.9844 14.1541C14.6733 14.7848 14.1918 15.2876 13.5398 15.6626C12.8878 16.0334 12.0526 16.2188 11.0341 16.2188H7.86364V14.8125H10.983C11.6861 14.8125 12.2507 14.6911 12.6768 14.4482C13.103 14.2053 13.4119 13.8771 13.6037 13.4638C13.7997 13.0462 13.8977 12.5753 13.8977 12.0511C13.8977 11.527 13.7997 11.0582 13.6037 10.6449C13.4119 10.2315 13.1009 9.90767 12.6705 9.6733C12.2401 9.43466 11.669 9.31534 10.9574 9.31534H8.17045V21H6.58523ZM23.861 13.3807L22.5059 13.7642C22.4207 13.5384 22.295 13.3189 22.1288 13.1058C21.9668 12.8885 21.7452 12.7095 21.464 12.5689C21.1827 12.4283 20.8227 12.358 20.3837 12.358C19.7829 12.358 19.2822 12.4964 18.8816 12.7734C18.4853 13.0462 18.2871 13.3935 18.2871 13.8153C18.2871 14.1903 18.4235 14.4865 18.6962 14.7038C18.969 14.9212 19.3951 15.1023 19.9746 15.2472L21.432 15.6051C22.3099 15.8182 22.964 16.1442 23.3944 16.5831C23.8248 17.0178 24.04 17.5781 24.04 18.2642C24.04 18.8267 23.8781 19.3295 23.5542 19.7727C23.2346 20.2159 22.7871 20.5653 22.2119 20.821C21.6366 21.0767 20.9675 21.2045 20.2048 21.2045C19.2033 21.2045 18.3745 20.9872 17.7183 20.5526C17.062 20.1179 16.6465 19.483 16.4718 18.6477L17.9036 18.2898C18.04 18.8182 18.2978 19.2145 18.6771 19.4787C19.0606 19.7429 19.5613 19.875 20.1792 19.875C20.8823 19.875 21.4406 19.7259 21.8539 19.4276C22.2715 19.125 22.4803 18.7628 22.4803 18.3409C22.4803 18 22.361 17.7145 22.1224 17.4844C21.8837 17.25 21.5173 17.0753 21.0229 16.9602L19.3866 16.5767C18.4874 16.3636 17.8269 16.0334 17.405 15.5859C16.9874 15.1342 16.7786 14.5696 16.7786 13.892C16.7786 13.3381 16.9342 12.848 17.2452 12.4219C17.5606 11.9957 17.9888 11.6612 18.53 11.4183C19.0755 11.1754 19.6934 11.054 20.3837 11.054C21.3553 11.054 22.1181 11.267 22.6721 11.6932C23.2303 12.1193 23.6266 12.6818 23.861 13.3807Z" fill="#B5D3DF"/>
</g>
<defs>
<filter id="filter0_d_117_668" x="0" y="0" width="30" height="30" filterUnits="userSpaceOnUse" color-interpolation-filters="sRGB">
<feFlood flood-opacity="0" result="BackgroundImageFix"/>
<feColorMatrix in="SourceAlpha" type="matrix" values="0 0 0 0 0 0 0 0 0 0 0 0 0 0 0 0 0 0 127 0" result="hardAlpha"/>
<feOffset dy="1"/>
<feGaussianBlur stdDeviation="0.5"/>
<feComposite in2="hardAlpha" operator="out"/>
<feColorMatrix type="matrix" values="0 0 0 0 0 0 0 0 0 0 0 0 0 0 0 0 0 0 0.25 0"/>
<feBlend mode="normal" in2="BackgroundImageFix" result="effect1_dropShadow_117_668"/>
<feBlend mode="normal" in="SourceGraphic" in2="effect1_dropShadow_117_668" result="shape"/>
</filter>
</defs>
</svg>
