<svg width="30" height="30" viewBox="0 0 30 30" fill="none" xmlns="http://www.w3.org/2000/svg">
<g filter="url(#filter0_d_109_701)">
<rect x="1" width="28" height="28" rx="5" fill="white"/>
<path d="M9.23295 20V9.81818H12.6733C13.4721 9.81818 14.125 9.96236 14.6321 10.2507C15.1425 10.5357 15.5204 10.9219 15.7656 11.4091C16.0109 11.8963 16.1335 12.4399 16.1335 13.0398C16.1335 13.6397 16.0109 14.1849 15.7656 14.6754C15.5237 15.166 15.1491 15.5571 14.642 15.8487C14.1349 16.1371 13.4853 16.2812 12.6932 16.2812H10.2273V15.1875H12.6534C13.2003 15.1875 13.6394 15.093 13.9709 14.9041C14.3023 14.7152 14.5426 14.46 14.6918 14.1385C14.8442 13.8137 14.9205 13.4474 14.9205 13.0398C14.9205 12.6321 14.8442 12.2675 14.6918 11.946C14.5426 11.6245 14.3007 11.3726 13.9659 11.1903C13.6312 11.0047 13.187 10.9119 12.6335 10.9119H10.4659V20H9.23295ZM21.3612 12.3636V13.358H17.2447V12.3636H21.3612ZM18.4776 20V11.3097C18.4776 10.8722 18.5804 10.5076 18.7859 10.2159C18.9914 9.92424 19.2582 9.70549 19.5863 9.55966C19.9144 9.41383 20.2608 9.34091 20.6254 9.34091C20.9137 9.34091 21.149 9.36411 21.3313 9.41051C21.5136 9.45691 21.6495 9.5 21.739 9.53977L21.4009 10.554C21.3413 10.5341 21.2584 10.5092 21.1523 10.4794C21.0496 10.4496 20.9137 10.4347 20.7447 10.4347C20.3569 10.4347 20.0768 10.5324 19.9045 10.728C19.7354 10.9235 19.6509 11.2102 19.6509 11.5881V20H18.4776Z" fill="black"/>
</g>
<defs>
<filter id="filter0_d_109_701" x="0" y="0" width="30" height="30" filterUnits="userSpaceOnUse" color-interpolation-filters="sRGB">
<feFlood flood-opacity="0" result="BackgroundImageFix"/>
<feColorMatrix in="SourceAlpha" type="matrix" values="0 0 0 0 0 0 0 0 0 0 0 0 0 0 0 0 0 0 127 0" result="hardAlpha"/>
<feOffset dy="1"/>
<feGaussianBlur stdDeviation="0.5"/>
<feComposite in2="hardAlpha" operator="out"/>
<feColorMatrix type="matrix" values="0 0 0 0 0 0 0 0 0 0 0 0 0 0 0 0 0 0 0.25 0"/>
<feBlend mode="normal" in2="BackgroundImageFix" result="effect1_dropShadow_109_701"/>
<feBlend mode="normal" in="SourceGraphic" in2="effect1_dropShadow_109_701" result="shape"/>
</filter>
</defs>
</svg>
