<svg width="32" height="32" viewBox="0 0 32 32" fill="none" xmlns="http://www.w3.org/2000/svg">
<path d="M26.5003 11.3327H20.5003C20.1467 11.3327 19.8076 11.1922 19.5575 10.9422C19.3075 10.6921 19.167 10.353 19.167 9.99935C19.167 9.64573 19.3075 9.30659 19.5575 9.05654C19.8076 8.80649 20.1467 8.66602 20.5003 8.66602H25.167V3.99935C25.167 3.64573 25.3075 3.30659 25.5575 3.05654C25.8076 2.80649 26.1467 2.66602 26.5003 2.66602C26.8539 2.66602 27.1931 2.80649 27.4431 3.05654C27.6932 3.30659 27.8337 3.64573 27.8337 3.99935V9.99935C27.8337 10.353 27.6932 10.6921 27.4431 10.9422C27.1931 11.1922 26.8539 11.3327 26.5003 11.3327Z" fill="#F8F8F8"/>
<path d="M16.0002 29.3327C13.6593 29.3347 11.3591 28.7204 9.33087 27.5515C7.30268 26.3826 5.61797 24.7004 4.44613 22.6739C3.2743 20.6474 2.65665 18.3481 2.65528 16.0072C2.6539 13.6662 3.26886 11.3662 4.43832 9.33836C5.60778 7.31049 7.29052 5.62626 9.31735 4.455C11.3442 3.28373 13.6436 2.66673 15.9846 2.66602C18.3255 2.66531 20.6253 3.28091 22.6528 4.45094C24.6804 5.62098 26.3641 7.30419 27.5348 9.33134C27.7004 9.63651 27.7404 9.99423 27.6464 10.3285C27.5523 10.6627 27.3316 10.947 27.0312 11.121C26.7307 11.295 26.3743 11.345 26.0376 11.2603C25.7009 11.1755 25.4105 10.9628 25.2282 10.6673C23.9313 8.4321 21.8661 6.74447 19.4174 5.91879C16.9686 5.0931 14.3032 5.18567 11.9176 6.17924C9.53199 7.1728 7.58888 8.99963 6.45017 11.3195C5.31147 13.6393 5.05481 16.2939 5.72801 18.7889C6.4012 21.2839 7.95835 23.4492 10.1094 24.8813C12.2605 26.3135 14.8588 26.915 17.4204 26.5737C19.982 26.2325 22.3322 24.9717 24.0333 23.0263C25.7344 21.081 26.6703 18.5836 26.6668 15.9993C26.6668 15.6457 26.8073 15.3066 27.0574 15.0565C27.3074 14.8065 27.6465 14.666 28.0002 14.666C28.3538 14.666 28.6929 14.8065 28.943 15.0565C29.193 15.3066 29.3335 15.6457 29.3335 15.9993C29.3296 19.5344 27.9236 22.9235 25.424 25.4231C22.9243 27.9228 19.5352 29.3288 16.0002 29.3327Z" fill="#F8F8F8"/>
</svg>
