<svg width="32" height="32" viewBox="0 0 32 32" fill="none" xmlns="http://www.w3.org/2000/svg">
<path d="M14 2H32V20H28.3438L20.2656 6L18.6562 8.76562C18.0833 7.88021 17.401 7.08854 16.6094 6.39062C15.8177 5.69271 14.9479 5.10938 14 4.64062V2ZM17.2031 11.2969L9.89062 23.9531C9.58854 23.9844 9.29167 24 9 24C7.76042 24 6.59375 23.7656 5.5 23.2969C4.40625 22.8281 3.45312 22.1823 2.64062 21.3594C1.82812 20.5365 1.1875 19.5833 0.71875 18.5C0.25 17.4167 0.0104167 16.25 0 15C0 13.7604 0.234375 12.5938 0.703125 11.5C1.17188 10.4062 1.81771 9.45312 2.64062 8.64062C3.46354 7.82812 4.41667 7.1875 5.5 6.71875C6.58333 6.25 7.75 6.01042 9 6C9.88542 6 10.7396 6.125 11.5625 6.375C12.3854 6.625 13.1562 6.97917 13.875 7.4375C14.5938 7.89583 15.2344 8.44792 15.7969 9.09375C16.3594 9.73958 16.8281 10.474 17.2031 11.2969ZM9.29688 30L20.2656 11L31.2344 30H9.29688Z" fill="#F8F8F8"/>
</svg>
