<svg width="30" height="30" viewBox="0 0 30 30" fill="none" xmlns="http://www.w3.org/2000/svg">
<g filter="url(#filter0_d_109_700)">
<rect x="1" width="28" height="28" rx="5" fill="white"/>
<path d="M14.8011 11.3636C14.7415 10.8598 14.4995 10.4688 14.0753 10.1903C13.651 9.91193 13.1307 9.77273 12.5142 9.77273C12.0634 9.77273 11.669 9.84564 11.331 9.99148C10.9962 10.1373 10.7344 10.3378 10.5455 10.593C10.3598 10.8482 10.267 11.1383 10.267 11.4631C10.267 11.7348 10.3317 11.9685 10.4609 12.1641C10.5935 12.3563 10.7625 12.517 10.968 12.6463C11.1735 12.7723 11.389 12.8767 11.6143 12.9595C11.8397 13.0391 12.0469 13.1037 12.2358 13.1534L13.2699 13.4318C13.535 13.5014 13.83 13.5975 14.1548 13.7202C14.483 13.8428 14.7962 14.0102 15.0945 14.2223C15.3961 14.4311 15.6446 14.6996 15.8402 15.0277C16.0357 15.3558 16.1335 15.7585 16.1335 16.2358C16.1335 16.786 15.9893 17.2831 15.701 17.7273C15.416 18.1714 14.9983 18.5244 14.4482 18.7862C13.9013 19.0481 13.2367 19.179 12.4545 19.179C11.7254 19.179 11.094 19.0613 10.5604 18.826C10.0301 18.5907 9.61245 18.2625 9.30753 17.8416C9.00592 17.4207 8.83523 16.9318 8.79545 16.375H10.0682C10.1013 16.7595 10.2306 17.0777 10.456 17.3295C10.6847 17.5781 10.973 17.7637 11.321 17.8864C11.6723 18.0057 12.0502 18.0653 12.4545 18.0653C12.9252 18.0653 13.3478 17.9891 13.7223 17.8366C14.0968 17.6809 14.3935 17.4654 14.6122 17.1903C14.831 16.9119 14.9403 16.5871 14.9403 16.2159C14.9403 15.8778 14.8459 15.6027 14.657 15.3906C14.468 15.1785 14.2195 15.0062 13.9112 14.8736C13.603 14.741 13.2699 14.625 12.9119 14.5256L11.6591 14.1676C10.8636 13.9389 10.2339 13.6125 9.76989 13.1882C9.30587 12.764 9.07386 12.2088 9.07386 11.5227C9.07386 10.9527 9.22798 10.4555 9.53622 10.0312C9.84777 9.60369 10.2654 9.27225 10.7891 9.03693C11.3161 8.7983 11.9044 8.67898 12.554 8.67898C13.2102 8.67898 13.7936 8.79664 14.304 9.03196C14.8144 9.26397 15.2188 9.58215 15.517 9.98651C15.8187 10.3909 15.9777 10.8499 15.9943 11.3636H14.8011ZM21.3226 11.3636V12.358H17.3652V11.3636H21.3226ZM18.5186 9.53409H19.6919V16.8125C19.6919 17.1439 19.74 17.3925 19.8361 17.5582C19.9355 17.7206 20.0615 17.83 20.214 17.8864C20.3697 17.9394 20.5338 17.9659 20.7061 17.9659C20.8354 17.9659 20.9415 17.9593 21.0243 17.946C21.1072 17.9295 21.1735 17.9162 21.2232 17.9062L21.4618 18.9602C21.3823 18.9901 21.2712 19.0199 21.1287 19.0497C20.9862 19.0829 20.8056 19.0994 20.5868 19.0994C20.2554 19.0994 19.9306 19.0282 19.6124 18.8857C19.2975 18.7431 19.0357 18.526 18.8269 18.2344C18.6214 17.9427 18.5186 17.5748 18.5186 17.1307V9.53409Z" fill="black"/>
</g>
<defs>
<filter id="filter0_d_109_700" x="0" y="0" width="30" height="30" filterUnits="userSpaceOnUse" color-interpolation-filters="sRGB">
<feFlood flood-opacity="0" result="BackgroundImageFix"/>
<feColorMatrix in="SourceAlpha" type="matrix" values="0 0 0 0 0 0 0 0 0 0 0 0 0 0 0 0 0 0 127 0" result="hardAlpha"/>
<feOffset dy="1"/>
<feGaussianBlur stdDeviation="0.5"/>
<feComposite in2="hardAlpha" operator="out"/>
<feColorMatrix type="matrix" values="0 0 0 0 0 0 0 0 0 0 0 0 0 0 0 0 0 0 0.25 0"/>
<feBlend mode="normal" in2="BackgroundImageFix" result="effect1_dropShadow_109_700"/>
<feBlend mode="normal" in="SourceGraphic" in2="effect1_dropShadow_109_700" result="shape"/>
</filter>
</defs>
</svg>
