<svg width="32" height="32" viewBox="0 0 32 32" fill="none" xmlns="http://www.w3.org/2000/svg">
<g clip-path="url(#clip0_110_710)">
<path fill-rule="evenodd" clip-rule="evenodd" d="M18.2857 4.57227C17.6795 4.57227 17.0981 4.81308 16.6695 5.24174C16.2408 5.67039 16 6.25177 16 6.85798V7.92998H17.1429C18.8099 7.92998 20.4087 8.59222 21.5875 9.77102C22.7663 10.9498 23.4286 12.5486 23.4286 14.2157V14.5723H32V6.85798C32 6.25177 31.7592 5.67039 31.3305 5.24174C30.9019 4.81308 30.3205 4.57227 29.7143 4.57227H18.2857ZM18.0366 31.706C18.2759 31.0133 18.3448 30.2732 18.2377 29.5483C19.6924 29.291 21.0099 28.5296 21.9591 27.3977C22.9083 26.2658 23.4286 24.8358 23.4286 23.3585V17.4294H32V29.7151C32 30.3213 31.7592 30.9027 31.3305 31.3314C30.9019 31.76 30.3205 32.0008 29.7143 32.0008H19.4286C18.949 32.0017 18.4746 31.9012 18.0366 31.706ZM28.9623 9.57112C28.9744 9.80827 28.9382 10.0454 28.8558 10.2681C28.7734 10.4908 28.6465 10.6944 28.483 10.8666C28.3194 11.0387 28.1226 11.1758 27.9044 11.2694C27.6861 11.3631 27.4512 11.4114 27.2137 11.4114C26.9763 11.4114 26.7413 11.3631 26.5231 11.2694C26.3049 11.1758 26.108 11.0387 25.9444 10.8666C25.7809 10.6944 25.654 10.4908 25.5716 10.2681C25.4892 10.0454 25.453 9.80827 25.4651 9.57112C25.4881 9.12283 25.6823 8.70048 26.0077 8.39129C26.3331 8.0821 26.7648 7.9097 27.2137 7.9097C27.6626 7.9097 28.0943 8.0821 28.4197 8.39129C28.7451 8.70048 28.9394 9.12283 28.9623 9.57112ZM0 14.218C0 13.3087 0.361223 12.4366 1.00421 11.7936C1.64719 11.1506 2.51926 10.7894 3.42857 10.7894H17.1429C18.0522 10.7894 18.9242 11.1506 19.5672 11.7936C20.2102 12.4366 20.5714 13.3087 20.5714 14.218V23.3608C20.5714 24.2702 20.2102 25.1422 19.5672 25.7852C18.9242 26.4282 18.0522 26.7894 17.1429 26.7894H12V28.5037H13.7143C14.1689 28.5037 14.605 28.6843 14.9265 29.0058C15.248 29.3273 15.4286 29.7633 15.4286 30.218C15.4286 30.6726 15.248 31.1087 14.9265 31.4302C14.605 31.7517 14.1689 31.9323 13.7143 31.9323H6.85714C6.40249 31.9323 5.96645 31.7517 5.64496 31.4302C5.32347 31.1087 5.14286 30.6726 5.14286 30.218C5.14286 29.7633 5.32347 29.3273 5.64496 29.0058C5.96645 28.6843 6.40249 28.5037 6.85714 28.5037H8.57143V26.7894H3.42857C2.51926 26.7894 1.64719 26.4282 1.00421 25.7852C0.361223 25.1422 0 24.2702 0 23.3608L0 14.218Z" fill="#F8F8F8"/>
</g>
<defs>
<clipPath id="clip0_110_710">
<rect width="32" height="32" fill="white"/>
</clipPath>
</defs>
</svg>
