<svg width="30" height="30" viewBox="0 0 30 30" fill="none" xmlns="http://www.w3.org/2000/svg">
<g filter="url(#filter0_d_133_666)">
<rect x="1.5" y="0.5" width="27" height="27" rx="4.5" fill="#29000D" stroke="#B72847"/>
<path d="M14.7443 11.1818C14.6676 10.5341 14.3565 10.0312 13.8111 9.6733C13.2656 9.31534 12.5966 9.13636 11.804 9.13636C11.2244 9.13636 10.7173 9.23011 10.2827 9.41761C9.85227 9.60511 9.51563 9.86293 9.27273 10.1911C9.03409 10.5192 8.91477 10.892 8.91477 11.3097C8.91477 11.6591 8.99787 11.9595 9.16406 12.2109C9.33452 12.4581 9.55185 12.6648 9.81605 12.831C10.0803 12.9929 10.3572 13.1271 10.647 13.2337C10.9368 13.3359 11.2031 13.419 11.446 13.483L12.7756 13.8409C13.1165 13.9304 13.4957 14.054 13.9134 14.2116C14.3352 14.3693 14.7379 14.5845 15.1214 14.8572C15.5092 15.1257 15.8288 15.4709 16.0803 15.8928C16.3317 16.3146 16.4574 16.8324 16.4574 17.446C16.4574 18.1534 16.272 18.7926 15.9013 19.3636C15.5348 19.9347 14.9979 20.3885 14.2905 20.7251C13.5874 21.0618 12.733 21.2301 11.7273 21.2301C10.7898 21.2301 9.97798 21.0788 9.2919 20.7763C8.61009 20.4737 8.07315 20.0518 7.68111 19.5107C7.29332 18.9695 7.07386 18.3409 7.02273 17.625H8.65909C8.7017 18.1193 8.8679 18.5284 9.15767 18.8523C9.4517 19.1719 9.82244 19.4105 10.2699 19.5682C10.7216 19.7216 11.2074 19.7983 11.7273 19.7983C12.3324 19.7983 12.8757 19.7003 13.3572 19.5043C13.8388 19.304 14.2202 19.027 14.5014 18.6733C14.7827 18.3153 14.9233 17.8977 14.9233 17.4205C14.9233 16.9858 14.8018 16.6321 14.5589 16.3594C14.3161 16.0866 13.9964 15.8651 13.6001 15.6946C13.2038 15.5241 12.7756 15.375 12.3153 15.2472L10.7045 14.7869C9.68182 14.4929 8.87216 14.0732 8.27557 13.5277C7.67898 12.9822 7.38068 12.2685 7.38068 11.3864C7.38068 10.6534 7.57884 10.0142 7.97514 9.46875C8.37571 8.91903 8.91264 8.4929 9.58594 8.19034C10.2635 7.88352 11.0199 7.73011 11.8551 7.73011C12.6989 7.73011 13.4489 7.88139 14.1051 8.18395C14.7614 8.48224 15.2813 8.89133 15.6648 9.41122C16.0526 9.93111 16.2571 10.5213 16.2784 11.1818H14.7443ZM22.2291 11.1818V12.4602H17.141V11.1818H22.2291ZM18.624 8.82955H20.1325V18.1875C20.1325 18.6136 20.1943 18.9332 20.3179 19.1463C20.4457 19.3551 20.6076 19.4957 20.8037 19.5682C21.0039 19.6364 21.2149 19.6705 21.4365 19.6705C21.6027 19.6705 21.739 19.6619 21.8456 19.6449C21.9521 19.6236 22.0373 19.6065 22.1012 19.5938L22.4081 20.9489C22.3058 20.9872 22.163 21.0256 21.9798 21.0639C21.7966 21.1065 21.5643 21.1278 21.2831 21.1278C20.8569 21.1278 20.4393 21.0362 20.0302 20.853C19.6254 20.6697 19.2887 20.3906 19.0203 20.0156C18.7561 19.6406 18.624 19.1676 18.624 18.5966V8.82955Z" fill="#D02F51"/>
</g>
<defs>
<filter id="filter0_d_133_666" x="0" y="0" width="30" height="30" filterUnits="userSpaceOnUse" color-interpolation-filters="sRGB">
<feFlood flood-opacity="0" result="BackgroundImageFix"/>
<feColorMatrix in="SourceAlpha" type="matrix" values="0 0 0 0 0 0 0 0 0 0 0 0 0 0 0 0 0 0 127 0" result="hardAlpha"/>
<feOffset dy="1"/>
<feGaussianBlur stdDeviation="0.5"/>
<feComposite in2="hardAlpha" operator="out"/>
<feColorMatrix type="matrix" values="0 0 0 0 0 0 0 0 0 0 0 0 0 0 0 0 0 0 0.25 0"/>
<feBlend mode="normal" in2="BackgroundImageFix" result="effect1_dropShadow_133_666"/>
<feBlend mode="normal" in="SourceGraphic" in2="effect1_dropShadow_133_666" result="shape"/>
</filter>
</defs>
</svg>
